<?xml version="1.0" encoding="UTF-8" standalone="no"?>
<!-- Created with Inkscape (http://www.inkscape.org/) -->

<svg
   xmlns:dc="http://purl.org/dc/elements/1.1/"
   xmlns:cc="http://creativecommons.org/ns#"
   xmlns:rdf="http://www.w3.org/1999/02/22-rdf-syntax-ns#"
   xmlns:svg="http://www.w3.org/2000/svg"
   xmlns="http://www.w3.org/2000/svg"
   xmlns:sodipodi="http://sodipodi.sourceforge.net/DTD/sodipodi-0.dtd"
   xmlns:inkscape="http://www.inkscape.org/namespaces/inkscape"
   width="207.84949mm"
   height="98.689583mm"
   viewBox="0 0 207.84949 98.689583"
   version="1.1"
   id="svg8"
   inkscape:version="0.92.3 (2405546, 2018-03-11)"
   sodipodi:docname="AeAo2.svg">
  <defs
     id="defs2" />
  <sodipodi:namedview
     id="base"
     pagecolor="#ffffff"
     bordercolor="#666666"
     borderopacity="1.0"
     inkscape:pageopacity="0.0"
     inkscape:pageshadow="2"
     inkscape:zoom="0.35"
     inkscape:cx="-79.612828"
     inkscape:cy="114.38441"
     inkscape:document-units="mm"
     inkscape:current-layer="layer1"
     showgrid="false"
     inkscape:window-width="1920"
     inkscape:window-height="1001"
     inkscape:window-x="-9"
     inkscape:window-y="-9"
     inkscape:window-maximized="1" />
  <metadata
     id="metadata5">
    <rdf:RDF>
      <cc:Work
         rdf:about="">
        <dc:format>image/svg+xml</dc:format>
        <dc:type
           rdf:resource="http://purl.org/dc/dcmitype/StillImage" />
        <dc:title></dc:title>
      </cc:Work>
    </rdf:RDF>
  </metadata>
  <g
     inkscape:label="Layer 1"
     inkscape:groupmode="layer"
     id="layer1"
     transform="translate(-0.65351303,-80.407959)">
    <g
       id="g21"
       transform="matrix(2.2004754,0,0,3.300885,-101.69049,-12.185301)">
      <path
         style="fill:#f3f3f3;stroke-width:0.26458335"
         d="m 48.521162,57.752749 c 2.492414,-0.102907 2.130343,0.295764 4.026911,-4.433996 l 1.273131,-3.175 h 6.96203 6.962031 l 1.529141,3.750257 c 0.841028,2.062641 1.460585,3.818813 1.376795,3.902604 -0.08379,0.08379 -5.579613,0.128111 -12.212938,0.09849 -6.633325,-0.02962 -11.09602,-0.09368 -9.917101,-0.142355 z m 25.240886,-0.08308 c 1.236927,-0.108548 4.927865,-0.209785 8.202084,-0.224972 5.84055,-0.02709 5.973138,-0.03994 7.011458,-0.679461 1.297168,-0.798949 1.455209,-0.812856 1.455209,-0.128066 0,0.504039 0.137131,0.535112 2.043491,0.463021 l 2.043493,-0.07728 1.462236,-3.517793 c 0.80423,-1.934787 1.640832,-3.629604 1.859113,-3.766261 0.518449,-0.324579 12.712528,-0.324192 13.225938,4.23e-4 0.21651,0.136888 1.05261,1.831706 1.85801,3.766261 l 1.46435,3.517373 2.17689,0.07685 c 1.19729,0.04226 2.1769,-0.02568 2.1769,-0.15098 0,-0.125304 -0.47625,-1.342101 -1.05834,-2.703994 -1.33935,-3.133671 -1.34067,-3.491649 -0.008,-2.288032 2.85978,2.583635 5.72841,3.841393 9.26883,4.063942 6.47173,0.406805 12.10309,-3.683753 13.60317,-9.881176 0.35693,-1.474651 0.37676,-1.218967 0.3977,5.128704 l 0.022,6.680729 -34.72657,-0.04096 C 87.140043,57.885464 72.525121,57.77822 73.762048,57.669672 Z m -27.245897,-14.868107 -0.0062,-14.750521 39.092189,0.02899 c 23.02403,0.01707 38.60894,0.123749 37.9165,0.259529 -1.634,0.320408 -4.6954,1.840792 -6.00632,2.982916 -2.36173,2.057629 -3.99973,5.387044 -4.28373,8.707138 -0.0968,1.131184 -0.28435,2.062025 -0.41687,2.068535 -0.13252,0.0065 -1.39222,-2.70494 -2.79933,-6.025447 l -2.55838,-6.037285 h -2.88787 -2.88787 l -2.022455,4.7625 c -1.112351,2.619375 -3.137019,7.381875 -4.499264,10.583334 l -2.476807,5.820833 -1.719792,0.05875 c -0.945885,0.03231 -3.981979,0.184348 -6.746875,0.337859 l -5.027083,0.27911 -2.340655,1.607736 c -1.36021,0.934294 -2.438882,1.509511 -2.57515,1.373243 -0.41174,-0.41174 -3.142709,-7.032766 -2.997626,-7.267515 0.0767,-0.124101 3.615004,-0.227314 7.862901,-0.229363 l 7.723447,-0.0037 4.086254,-2.972838 c 2.247437,-1.635061 4.092906,-3.091901 4.101042,-3.237422 0.0095,-0.170434 -3.280421,-0.288304 -9.24563,-0.331245 l -9.260417,-0.06666 -2.974731,2.146193 c -1.636102,1.180407 -3.136876,2.083973 -3.335054,2.007925 -0.362028,-0.138923 -3.082923,-6.286147 -3.082923,-6.965141 0,-0.300827 1.633149,-0.362944 9.542394,-0.362944 6.767108,0 9.710476,-0.08983 10.120312,-0.308859 1.139468,-0.608969 8.118545,-5.81768 8.118545,-6.059132 0,-0.148346 -4.190207,-0.244669 -10.517188,-0.241764 l -10.517188,0.0048 -3.659484,2.672459 c -2.05647,1.501806 -3.758797,2.571757 -3.886204,2.442568 -0.124696,-0.126441 -0.65795,-1.241923 -1.185008,-2.47885 -1.564317,-3.671216 -1.300598,-3.470231 -4.438386,-3.38256 l -2.693887,0.07527 -5.754517,13.626042 -5.754517,13.626042 z m 8.989647,3.675976 c 0,-0.288564 1.434106,-3.847805 4.945876,-12.274934 0.0758,-0.181901 0.228934,-0.33073 0.340293,-0.33073 0.223987,0 5.301446,12.106082 5.298814,12.633855 -0.0013,0.253504 -1.237252,0.330729 -5.293317,0.330729 -4.278607,0 -5.291666,-0.06871 -5.291666,-0.35892 z m 43.761595,-0.277354 c -0.188106,-0.490199 4.794507,-12.460601 5.186657,-12.460601 0.38417,0 5.3648,11.994618 5.18029,12.475448 -0.20551,0.535559 -10.161207,0.521301 -10.366947,-0.01485 z m 41.434237,-5.839978 c 0,-0.817733 -1.1351,-3.869636 -1.91155,-5.139505 -0.9345,-1.528361 -3.12524,-3.731911 -4.78493,-4.81292 -1.42324,-0.926996 -3.90095,-1.910992 -5.47435,-2.174076 -0.3638,-0.06083 2.28534,-0.126815 5.88698,-0.146632 l 6.54844,-0.03603 v 6.482292 c 0,3.56526 -0.0595,6.482291 -0.13229,6.482291 -0.0728,0 -0.1323,-0.294938 -0.1323,-0.655418 z"
         id="path25"
         inkscape:connector-curvature="0" />
      <path
         style="fill:#0a0a0a;stroke-width:0.26458335"
         d="M 70.629152,57.832785 C 70.72507,57.7291 70.115434,55.956651 69.274406,53.89401 l -1.529141,-3.750257 h -6.96521 -6.96521 l -1.337665,3.307291 c -1.869374,4.621906 -1.540388,4.271288 -3.921346,4.179197 l -2.020693,-0.07815 5.748115,-13.626042 5.748115,-13.626042 2.693887,-0.07527 c 3.137788,-0.08767 2.874069,-0.288656 4.438386,3.38256 0.527058,1.236927 1.060312,2.352409 1.185008,2.47885 0.127407,0.129189 1.829734,-0.940762 3.886204,-2.442568 l 3.659484,-2.672459 10.517188,-0.0048 c 6.326981,-0.0029 10.517188,0.09342 10.517188,0.241764 0,0.241452 -6.979077,5.450163 -8.118545,6.059132 -0.409836,0.219031 -3.353204,0.308859 -10.120312,0.308859 -7.909245,0 -9.542394,0.06212 -9.542394,0.362944 0,0.678994 2.720895,6.826218 3.082923,6.965141 0.198178,0.07605 1.698952,-0.827518 3.335054,-2.007925 l 2.974731,-2.146193 9.260417,0.06666 c 5.959769,0.0429 9.257454,0.160966 9.252101,0.331245 -0.0046,0.145521 -1.85004,1.602361 -4.101041,3.237422 l -4.092726,2.972838 -7.723447,0.0037 c -4.247897,0.002 -7.786202,0.105262 -7.862901,0.229363 -0.145083,0.234749 2.585886,6.855775 2.997626,7.267515 0.136268,0.136268 1.21494,-0.438949 2.57515,-1.373243 l 2.340655,-1.607736 5.027083,-0.279111 c 2.764896,-0.15351 5.80099,-0.305547 6.746875,-0.337858 l 1.719792,-0.05875 2.476807,-5.820833 c 1.362245,-3.201459 3.386913,-7.963959 4.499264,-10.583334 l 2.022452,-4.7625 h 2.88787 2.88787 l 2.57878,6.085417 c 1.41832,3.346979 2.67802,6.05843 2.79932,6.025447 0.12131,-0.03298 0.29972,-0.985483 0.39648,-2.116667 0.284,-3.320094 1.922,-6.649509 4.28373,-8.707138 1.44103,-1.255476 4.40465,-2.662835 6.38826,-3.033644 3.01587,-0.563773 6.80649,0.142508 9.63615,1.795439 1.58785,0.927534 4.04386,3.280766 5.0333,4.82267 2.05788,3.20693 2.84558,7.482634 2.02213,10.976217 -1.51851,6.442402 -7.05185,10.552226 -13.64887,10.137544 -3.54042,-0.222549 -6.40905,-1.480307 -9.26883,-4.063942 -1.33226,-1.203617 -1.33094,-0.845639 0.008,2.288032 0.58209,1.361893 1.05834,2.57869 1.05834,2.703994 0,0.125302 -0.97961,0.193244 -2.1769,0.150977 l -2.17689,-0.07685 -1.46435,-3.517373 c -0.8054,-1.934555 -1.6415,-3.629373 -1.85801,-3.766261 -0.51341,-0.324612 -12.707489,-0.324999 -13.225938,-4.2e-4 -0.218281,0.136657 -1.054883,1.831474 -1.859113,3.766261 l -1.462236,3.517793 -2.043493,0.07728 c -1.90636,0.07209 -2.043491,0.04102 -2.043491,-0.463021 0,-0.68072 -0.06499,-0.676429 -1.408094,0.09293 -1.079265,0.618223 -1.293461,0.63686 -9.042948,0.786779 -4.365625,0.08446 -8.294688,0.232499 -8.731251,0.328988 -0.436562,0.09649 -0.715272,0.0906 -0.619354,-0.01307 z M 66.090781,46.505732 c 0.0026,-0.527773 -5.074827,-12.633855 -5.298814,-12.633855 -0.111359,0 -0.264491,0.148829 -0.340293,0.33073 -3.51177,8.427129 -4.945876,11.98637 -4.945876,12.274934 0,0.290207 1.013059,0.35892 5.291666,0.35892 4.056065,0 5.292053,-0.07722 5.293317,-0.330729 z m 43.543559,-0.290698 c 0.18451,-0.48083 -4.79612,-12.475448 -5.18029,-12.475448 -0.39215,0 -5.374763,11.970402 -5.186657,12.460601 0.20574,0.536148 10.161437,0.550406 10.366947,0.01485 z"
         id="path23"
         inkscape:connector-curvature="0" />
    </g>
  </g>
</svg>
