<?xml version="1.0" encoding="UTF-8" standalone="no"?>
<!-- Created with Inkscape (http://www.inkscape.org/) -->

<svg
   xmlns:dc="http://purl.org/dc/elements/1.1/"
   xmlns:cc="http://creativecommons.org/ns#"
   xmlns:rdf="http://www.w3.org/1999/02/22-rdf-syntax-ns#"
   xmlns:svg="http://www.w3.org/2000/svg"
   xmlns="http://www.w3.org/2000/svg"
   xmlns:sodipodi="http://sodipodi.sourceforge.net/DTD/sodipodi-0.dtd"
   xmlns:inkscape="http://www.inkscape.org/namespaces/inkscape"
   width="210mm"
   height="297mm"
   viewBox="0 0 210 297"
   version="1.1"
   id="svg8"
   inkscape:version="0.92.3 (2405546, 2018-03-11)"
   sodipodi:docname="ini.svg"
   inkscape:export-filename="D:\Documents\Desarrollo WEB\Eva_Final\Img\Iniciales.png"
   inkscape:export-xdpi="96"
   inkscape:export-ydpi="96">
  <defs
     id="defs2">
    <meshgradient
       inkscape:collect="always"
       id="meshgradient3802"
       gradientUnits="userSpaceOnUse"
       x="29.533278"
       y="20.042484"
       gradientTransform="matrix(0.85544032,0,0,1,0.6016591,0.416673)">
      <meshrow
         id="meshrow3804">
        <meshpatch
           id="meshpatch3806">
          <stop
             path="c 9.51739,0  19.0348,0  28.5522,0"
             style="stop-color:#ffffff;stop-opacity:1"
             id="stop3808" />
          <stop
             path="c 0,2.20183  0,4.40367  0,6.6055"
             style="stop-color:#000000;stop-opacity:1"
             id="stop3810" />
          <stop
             path="c -9.51739,0  -19.0348,0  -28.5522,0"
             style="stop-color:#ffffff;stop-opacity:1"
             id="stop3812" />
          <stop
             path="c 0,-2.20183  0,-4.40367  0,-6.6055"
             style="stop-color:#000000;stop-opacity:1"
             id="stop3814" />
        </meshpatch>
      </meshrow>
    </meshgradient>
    <meshgradient
       inkscape:collect="always"
       id="meshgradient3816"
       gradientUnits="userSpaceOnUse"
       x="27.038639"
       y="10.139508"
       gradientTransform="translate(-3.056185,0.87138604)">
      <meshrow
         id="meshrow3818">
        <meshpatch
           id="meshpatch3820">
          <stop
             path="c 10.2724,0  20.5448,0  30.8172,0"
             style="stop-color:#ffffff;stop-opacity:1"
             id="stop3822" />
          <stop
             path="c 0,2.20183  0,4.40367  0,6.6055"
             style="stop-color:#000000;stop-opacity:1"
             id="stop3824" />
          <stop
             path="c -10.2724,0  -20.5448,0  -30.8172,0"
             style="stop-color:#ffffff;stop-opacity:1"
             id="stop3826" />
          <stop
             path="c 0,-2.20183  0,-4.40367  0,-6.6055"
             style="stop-color:#000000;stop-opacity:1"
             id="stop3828" />
        </meshpatch>
      </meshrow>
    </meshgradient>
    <meshgradient
       inkscape:collect="always"
       id="meshgradient3830"
       gradientUnits="userSpaceOnUse"
       x="32.568962"
       y="30.674086"
       gradientTransform="matrix(0.95512087,0,0,1,-2.1231302,-0.02061)">
      <meshrow
         id="meshrow3832">
        <meshpatch
           id="meshpatch3834">
          <stop
             path="c 8.85628,0  17.7126,0  26.5688,0"
             style="stop-color:#ffffff;stop-opacity:1"
             id="stop3836" />
          <stop
             path="c 0,2.19657  0,4.39314  0,6.58971"
             style="stop-color:#000000;stop-opacity:1"
             id="stop3838" />
          <stop
             path="c -8.85628,0  -17.7126,0  -26.5688,0"
             style="stop-color:#ffffff;stop-opacity:1"
             id="stop3840" />
          <stop
             path="c 0,-2.19657  0,-4.39314  0,-6.58971"
             style="stop-color:#000000;stop-opacity:1"
             id="stop3842" />
        </meshpatch>
      </meshrow>
    </meshgradient>
    <meshgradient
       inkscape:collect="always"
       id="meshgradient3844"
       gradientUnits="userSpaceOnUse"
       x="72.253241"
       y="27.50762"
       gradientTransform="translate(-14.722733,-1.3018737)">
      <meshrow
         id="meshrow3846">
        <meshpatch
           id="meshpatch3848">
          <stop
             path="c 5.38886,-5.57067  14.1259,-5.57067  19.5148,0"
             style="stop-color:#ffffff;stop-opacity:1"
             id="stop3850" />
          <stop
             path="c 5.38886,5.57067  5.38886,14.6025  0,20.1732"
             style="stop-color:#000000;stop-opacity:1"
             id="stop3852" />
          <stop
             path="c -5.38886,5.57067  -14.1259,5.57067  -19.5148,0"
             style="stop-color:#ffffff;stop-opacity:1"
             id="stop3854" />
          <stop
             path="c -5.38886,-5.57067  -5.38886,-14.6025  0,-20.1732"
             style="stop-color:#000000;stop-opacity:1"
             id="stop3856" />
        </meshpatch>
      </meshrow>
    </meshgradient>
  </defs>
  <sodipodi:namedview
     id="base"
     pagecolor="#ffffff"
     bordercolor="#666666"
     borderopacity="1.0"
     inkscape:pageopacity="0.0"
     inkscape:pageshadow="2"
     inkscape:zoom="2.884621"
     inkscape:cx="209.60139"
     inkscape:cy="1022.8571"
     inkscape:document-units="mm"
     inkscape:current-layer="layer1"
     showgrid="false"
     inkscape:window-width="1920"
     inkscape:window-height="1001"
     inkscape:window-x="-9"
     inkscape:window-y="-9"
     inkscape:window-maximized="1" />
  <metadata
     id="metadata5">
    <rdf:RDF>
      <cc:Work
         rdf:about="">
        <dc:format>image/svg+xml</dc:format>
        <dc:type
           rdf:resource="http://purl.org/dc/dcmitype/StillImage" />
        <dc:title></dc:title>
      </cc:Work>
    </rdf:RDF>
  </metadata>
  <g
     inkscape:label="Layer 1"
     inkscape:groupmode="layer"
     id="layer1">
    <flowRoot
       xml:space="preserve"
       id="flowRoot3729"
       style="fill:black;fill-opacity:1;stroke:none;font-family:sans-serif;font-style:normal;font-weight:normal;font-size:40px;line-height:1.25;letter-spacing:0px;word-spacing:0px"><flowRegion
         id="flowRegion3731"><rect
           id="rect3733"
           width="177.14285"
           height="122.85714"
           x="74.285713"
           y="253.94826" /></flowRegion><flowPara
         id="flowPara3735"></flowPara></flowRoot>    <path
       id="path3737"
       d="m 33.067354,11.013365 c 2.492981,0.03747 4.98642,0.01998 7.479562,0.01081 1.732031,-0.0072 3.464073,-0.01061 5.196118,-0.01231 1.510495,-0.0011 3.020991,-9.79e-4 4.531487,-9.52e-4 1.508373,5.9e-5 3.01675,1.06e-4 4.525126,1.32e-4 0,0 -9.091276,6.6052 -9.091276,6.6052 v 0 c -1.508496,2.6e-5 -3.016994,7.3e-5 -4.525492,1.33e-4 -1.509625,2.9e-5 -3.019253,1.59e-4 -4.528878,-9.53e-4 -1.720752,-0.0017 -3.441502,-0.0051 -5.16224,-0.0123 -2.503061,-0.0093 -5.006403,-0.02632 -7.509307,0.0108 0,0 9.0849,-6.60057 9.0849,-6.60057 z"
       inkscape:connector-curvature="0"
       style="fill:url(#meshgradient3816);fill-opacity:1;stroke-width:0.26458332"
       inkscape:export-xdpi="96"
       inkscape:export-ydpi="96" />
    <path
       id="path3739"
       d="m 33.637208,20.461627 c 2.132594,0.03747 4.265582,0.01998 6.398317,0.01081 1.481649,-0.0072 2.963307,-0.01062 4.444968,-0.01231 1.292139,-0.0011 2.584278,-9.79e-4 3.876416,-9.53e-4 0.644461,2.6e-5 1.288921,5.5e-5 1.933381,8.1e-5 0,0 -7.777166,6.605302 -7.777166,6.605302 v 0 c -0.644524,2.6e-5 -1.289047,5.5e-5 -1.933571,8.2e-5 -1.291394,2.9e-5 -2.582791,1.58e-4 -3.874185,-0.0011 -1.472,-0.0016 -2.943999,-0.0051 -4.415989,-0.0123 -2.141219,-0.0093 -4.282679,-0.02633 -6.423763,0.0108 0,0 7.771592,-6.600566 7.771592,-6.600566 z"
       inkscape:connector-curvature="0"
       style="fill:url(#meshgradient3802);fill-opacity:1;stroke-width:0.24471316"
       inkscape:export-xdpi="96"
       inkscape:export-ydpi="96" />
    <path
       id="path3741"
       d="m 37.220879,31.214311 c 2.281821,-0.212662 4.566875,-0.383032 6.856452,-0.487115 1.586944,-0.06545 3.175444,-0.07139 4.763503,-0.07372 1.381075,1.12e-4 2.762148,0.0024 4.143224,0.0035 0.917487,4.76e-4 0.458634,2.38e-4 1.376561,7.14e-4 0,0 -8.310827,5.943092 -8.310827,5.943092 v 0 c -0.918173,-4.76e-4 -0.459195,-2.31e-4 -1.376933,-9.89e-4 -1.379607,-0.0014 -2.759217,-0.0042 -4.138827,-0.0025 -1.568675,0.0051 -3.13773,0.0175 -4.705042,0.08837 -2.287025,0.111388 -4.572459,0.27373 -6.844825,0.557521 0,0 8.236714,-6.028954 8.236714,-6.028954 z"
       inkscape:connector-curvature="0"
       style="fill:url(#meshgradient3830);fill-opacity:1;stroke-width:0.23995665"
       inkscape:export-xdpi="96"
       inkscape:export-ydpi="96" />
    <ellipse
       id="path3767"
       cx="67.287895"
       cy="36.292343"
       style="fill:url(#meshgradient3844);fill-opacity:1;stroke-width:0.28885055"
       rx="13.799029"
       ry="14.2646"
       transform="matrix(0.98260358,-0.18571538,0.23092756,0.97297095,0,0)"
       inkscape:export-xdpi="96"
       inkscape:export-ydpi="96" />
    <flowRoot
       xml:space="preserve"
       id="flowRoot3792"
       style="fill:black;fill-opacity:1;stroke:none;font-family:sans-serif;font-style:normal;font-weight:normal;font-size:40px;line-height:1.25;letter-spacing:0px;word-spacing:0px"
       inkscape:export-xdpi="96"
       inkscape:export-ydpi="96"><flowRegion
         id="flowRegion3794"><rect
           id="rect3796"
           width="361.56656"
           height="122.07468"
           x="24.267857"
           y="25.073256" /></flowRegion><flowPara
         id="flowPara3798"></flowPara></flowRoot>    <path
       style="fill:none;stroke:#000000;stroke-width:0.26458332px;stroke-linecap:butt;stroke-linejoin:miter;stroke-opacity:1"
       d="m 24.948395,10.185173 7.620567,27.078621 -3.584797,-0.02061 -3.118549,-10.181145 -6.603987,0.09172 -2.293051,9.539091 -3.852326,0.09172 7.612929,-26.782836 z"
       id="path3858"
       inkscape:connector-curvature="0" />
    <path
       style="fill:none;stroke:#000000;stroke-width:0.26458332px;stroke-linecap:butt;stroke-linejoin:miter;stroke-opacity:1"
       d="m 19.903683,23.209703 h 5.503322 l -1.559274,-5.4116 H 21.55468 Z"
       id="path3860"
       inkscape:connector-curvature="0" />
    <path
       style="stroke-width:0.34666598"
       d="m 104.1219,120.80765 -5.88234,-19.26839 -12.837621,0.24441 c -7.060689,0.13442 -12.935203,0.34396 -13.054476,0.46563 -0.119272,0.12168 -2.123453,8.17722 -4.453735,17.9012 -2.330281,9.72398 -4.26069,17.70394 -4.289798,17.73324 -0.02911,0.0293 -3.001782,0.16798 -6.605943,0.30819 -6.320534,0.24586 -6.546747,0.23168 -6.376199,-0.39994 0.764168,-2.83007 28.148766,-99.134492 28.215043,-99.224885 0.112972,-0.154081 14.725906,0.546455 14.893433,0.713983 0.07109,0.07109 6.504986,22.780784 14.297556,50.465982 l 14.16829,50.33673 -6.09593,-0.004 -6.09593,-0.004 z M 96.658777,87.997232 c 6.93e-4,-0.238333 -1.352788,-5.156438 -3.007629,-10.929124 l -3.008801,-10.495794 -4.861575,0.09581 -4.861571,0.09581 -3.223666,10.573313 c -1.773017,5.815322 -3.223865,10.690312 -3.224108,10.833312 -2.43e-4,0.142999 4.991549,0.259999 11.09287,0.259999 8.642913,0 11.093571,-0.09572 11.09448,-0.433332 z"
       id="path3862"
       inkscape:connector-curvature="0"
       transform="scale(0.26458333)" />
    <path
       style="stroke-width:0.09172204"
       d="m 59.357445,32.092608 -1.556369,-5.098095 -3.39662,0.06467 c -1.868141,0.03556 -3.422439,0.09101 -3.453997,0.123198 -0.03156,0.03219 -0.56183,2.163556 -1.178384,4.736359 -0.616554,2.572803 -1.127308,4.684167 -1.135009,4.69192 -0.0077,0.0078 -0.794222,0.04444 -1.747823,0.08154 -1.672307,0.06505 -1.73216,0.0613 -1.687035,-0.105818 0.202186,-0.74879 7.447694,-26.229335 7.46523,-26.253251 0.02989,-0.04077 3.896228,0.144583 3.940553,0.188908 0.01881,0.01881 1.721111,6.027416 3.782895,13.352457 l 3.748694,13.31826 -1.612882,-0.0011 -1.612881,-0.0011 z m -1.974618,-8.68109 c 1.83e-4,-0.06306 -0.357925,-1.364307 -0.795768,-2.891664 l -0.796079,-2.777012 -1.286291,0.02535 -1.286291,0.02535 -0.852928,2.797522 c -0.469111,1.538637 -0.852981,2.828478 -0.853046,2.866314 -6.4e-5,0.03783 1.320681,0.06879 2.934989,0.06879 2.28677,0 2.935174,-0.02533 2.935414,-0.114652 z"
       id="path3862-9"
       inkscape:connector-curvature="0" />
  </g>
</svg>
